{"asset": {"version": "2.0"}, "buffers": [{"byteLength": 864, "uri": "mini-cube.bin"}], "bufferViews": [{"buffer": 0, "byteOffset": 0, "byteLength": 432, "target": 34962}, {"buffer": 0, "byteOffset": 432, "byteLength": 432, "target": 34962}], "accessors": [{"bufferView": 0, "componentType": 5126, "count": 36, "type": "VEC3", "min": [-0.5, -0.5, -0.5], "max": [0.5, 0.5, 0.5]}, {"bufferView": 1, "componentType": 5126, "count": 36, "type": "VEC3"}], "materials": [{"pbrMetallicRoughness": {"baseColorFactor": [0.38, 0.74, 1.0, 1.0], "metallicFactor": 0.2, "roughnessFactor": 0.6}}], "meshes": [{"primitives": [{"attributes": {"POSITION": 0, "NORMAL": 1}, "material": 0, "mode": 4}]}], "nodes": [{"mesh": 0}], "scenes": [{"nodes": [0]}], "scene": 0}